<svg width="72" height="72" viewBox="0 0 72 72" fill="none" xmlns="http://www.w3.org/2000/svg">
<rect width="72" height="72" rx="14" fill="#F1C40E"/>
<path d="M49.5 22.5C49.5 23.9583 49.2363 25.3255 48.709 26.6016C48.1816 27.8594 47.4521 28.9714 46.5205 29.9375C45.6064 30.8854 44.5342 31.6328 43.3037 32.1797C42.0732 32.7266 40.7637 33 39.375 33H9V29.5H39.375C40.3066 29.5 41.1768 29.3177 41.9854 28.9531C42.8115 28.5885 43.5322 28.0872 44.1475 27.4492C44.7627 26.8112 45.2461 26.0729 45.5977 25.2344C45.9492 24.3776 46.125 23.4661 46.125 22.5C46.125 21.5339 45.9492 20.6315 45.5977 19.793C45.2461 18.9362 44.7627 18.1888 44.1475 17.5508C43.5322 16.9128 42.8115 16.4115 41.9854 16.0469C41.1768 15.6823 40.3066 15.5 39.375 15.5C38.4434 15.5 37.5645 15.6823 36.7383 16.0469C35.9297 16.4115 35.2178 16.9128 34.6025 17.5508C33.9873 18.1888 33.5039 18.9362 33.1523 19.793C32.8008 20.6315 32.625 21.5339 32.625 22.5H29.25C29.25 21.0599 29.5137 19.7018 30.041 18.4258C30.5684 17.1497 31.2891 16.0378 32.2031 15.0898C33.1348 14.1237 34.207 13.3672 35.4199 12.8203C36.6504 12.2734 37.9688 12 39.375 12C40.7637 12 42.0732 12.2734 43.3037 12.8203C44.5342 13.3672 45.6064 14.1237 46.5205 15.0898C47.4521 16.0378 48.1816 17.1497 48.709 18.4258C49.2363 19.7018 49.5 21.0599 49.5 22.5ZM56.25 29.5C57.1816 29.5 58.0518 29.6823 58.8604 30.0469C59.6865 30.4115 60.4072 30.9128 61.0225 31.5508C61.6377 32.1888 62.1211 32.9362 62.4727 33.793C62.8242 34.6315 63 35.5339 63 36.5C63 37.4661 62.8242 38.3776 62.4727 39.2344C62.1211 40.0729 61.6377 40.8112 61.0225 41.4492C60.4072 42.0872 59.6865 42.5885 58.8604 42.9531C58.0518 43.3177 57.1816 43.5 56.25 43.5H51.9785C52.5762 44.5573 52.875 45.724 52.875 47C52.875 47.9661 52.6992 48.8776 52.3477 49.7344C51.9961 50.5729 51.5127 51.3112 50.8975 51.9492C50.2822 52.5872 49.5615 53.0885 48.7354 53.4531C47.9268 53.8177 47.0566 54 46.125 54C45.1934 54 44.3145 53.8177 43.4883 53.4531C42.6797 53.0885 41.9678 52.5872 41.3525 51.9492C40.7373 51.3112 40.2539 50.5729 39.9023 49.7344C39.5508 48.8776 39.375 47.9661 39.375 47H42.75C42.75 47.4922 42.8379 47.9479 43.0137 48.3672C43.1895 48.7865 43.4268 49.1602 43.7256 49.4883C44.042 49.7982 44.4023 50.0443 44.8066 50.2266C45.2109 50.4089 45.6504 50.5 46.125 50.5C46.5996 50.5 47.0391 50.4089 47.4434 50.2266C47.8477 50.0443 48.1992 49.7982 48.498 49.4883C48.8145 49.1602 49.0605 48.7865 49.2363 48.3672C49.4121 47.9479 49.5 47.4922 49.5 47C49.5 46.5078 49.4121 46.0521 49.2363 45.6328C49.0605 45.2135 48.8145 44.849 48.498 44.5391C48.1992 44.2109 47.8477 43.9557 47.4434 43.7734C47.0391 43.5911 46.5996 43.5 46.125 43.5H9V40H46.125H56.25C56.7246 40 57.1641 39.9089 57.5684 39.7266C57.9727 39.5443 58.3242 39.2982 58.623 38.9883C58.9395 38.6602 59.1855 38.2865 59.3613 37.8672C59.5371 37.4479 59.625 36.9922 59.625 36.5C59.625 36.0078 59.5371 35.5521 59.3613 35.1328C59.1855 34.7135 58.9395 34.349 58.623 34.0391C58.3242 33.7109 57.9727 33.4557 57.5684 33.2734C57.1641 33.0911 56.7246 33 56.25 33C55.7754 33 55.3359 33.0911 54.9316 33.2734C54.5273 33.4557 54.167 33.7109 53.8506 34.0391C53.5518 34.349 53.3145 34.7135 53.1387 35.1328C52.9629 35.5521 52.875 36.0078 52.875 36.5H49.5C49.5 35.5339 49.6758 34.6315 50.0273 33.793C50.3789 32.9362 50.8623 32.1888 51.4775 31.5508C52.0928 30.9128 52.8047 30.4115 53.6133 30.0469C54.4395 29.6823 55.3184 29.5 56.25 29.5Z" fill="#795700"/>
</svg>
